<mxfile host="Electron" agent="Mozilla/5.0 (Windows NT 10.0; Win64; x64) AppleWebKit/537.36 (KHTML, like Gecko) draw.io/24.7.17 Chrome/128.0.6613.36 Electron/32.0.1 Safari/537.36" version="24.7.17">
  <diagram name="Pagina-1" id="p2mb_WPd82gIGzp3sELq">
    <mxGraphModel dx="811" dy="470" grid="1" gridSize="10" guides="1" tooltips="1" connect="1" arrows="1" fold="1" page="1" pageScale="1" pageWidth="827" pageHeight="1169" math="1" shadow="0">
      <root>
        <mxCell id="0" />
        <mxCell id="1" parent="0" />
        <mxCell id="HoMJeiOZbGOWn7QI3YgP-7" style="edgeStyle=orthogonalEdgeStyle;rounded=0;orthogonalLoop=1;jettySize=auto;html=1;entryX=0;entryY=0.5;entryDx=0;entryDy=0;" edge="1" parent="1" source="HoMJeiOZbGOWn7QI3YgP-1" target="HoMJeiOZbGOWn7QI3YgP-2">
          <mxGeometry relative="1" as="geometry" />
        </mxCell>
        <mxCell id="HoMJeiOZbGOWn7QI3YgP-1" value="" style="ellipse;whiteSpace=wrap;html=1;aspect=fixed;fillColor=none;" vertex="1" parent="1">
          <mxGeometry x="330" y="370" width="20" height="20" as="geometry" />
        </mxCell>
        <mxCell id="HoMJeiOZbGOWn7QI3YgP-8" style="edgeStyle=orthogonalEdgeStyle;rounded=0;orthogonalLoop=1;jettySize=auto;html=1;entryX=0;entryY=0.5;entryDx=0;entryDy=0;" edge="1" parent="1" source="HoMJeiOZbGOWn7QI3YgP-2" target="HoMJeiOZbGOWn7QI3YgP-3">
          <mxGeometry relative="1" as="geometry" />
        </mxCell>
        <mxCell id="HoMJeiOZbGOWn7QI3YgP-16" value="\(\omega_{fb}(t)\)" style="edgeLabel;html=1;align=center;verticalAlign=middle;resizable=0;points=[];" vertex="1" connectable="0" parent="HoMJeiOZbGOWn7QI3YgP-8">
          <mxGeometry x="-0.4019" y="-1" relative="1" as="geometry">
            <mxPoint x="5" y="-11" as="offset" />
          </mxGeometry>
        </mxCell>
        <mxCell id="HoMJeiOZbGOWn7QI3YgP-2" value="P" style="rounded=0;whiteSpace=wrap;html=1;fillColor=none;fontSize=21;" vertex="1" parent="1">
          <mxGeometry x="400" y="360" width="40" height="40" as="geometry" />
        </mxCell>
        <mxCell id="HoMJeiOZbGOWn7QI3YgP-9" style="edgeStyle=orthogonalEdgeStyle;rounded=0;orthogonalLoop=1;jettySize=auto;html=1;entryX=0;entryY=0.5;entryDx=0;entryDy=0;" edge="1" parent="1" source="HoMJeiOZbGOWn7QI3YgP-3" target="HoMJeiOZbGOWn7QI3YgP-4">
          <mxGeometry relative="1" as="geometry" />
        </mxCell>
        <mxCell id="HoMJeiOZbGOWn7QI3YgP-23" value="\(\omega_{rif}(t)\)" style="edgeLabel;html=1;align=center;verticalAlign=middle;resizable=0;points=[];" vertex="1" connectable="0" parent="HoMJeiOZbGOWn7QI3YgP-9">
          <mxGeometry x="-0.248" y="1" relative="1" as="geometry">
            <mxPoint x="6" y="-9" as="offset" />
          </mxGeometry>
        </mxCell>
        <mxCell id="HoMJeiOZbGOWn7QI3YgP-3" value="" style="ellipse;whiteSpace=wrap;html=1;aspect=fixed;fillColor=none;" vertex="1" parent="1">
          <mxGeometry x="490" y="370" width="20" height="20" as="geometry" />
        </mxCell>
        <mxCell id="HoMJeiOZbGOWn7QI3YgP-10" style="edgeStyle=orthogonalEdgeStyle;rounded=0;orthogonalLoop=1;jettySize=auto;html=1;entryX=0;entryY=0.5;entryDx=0;entryDy=0;" edge="1" parent="1" source="HoMJeiOZbGOWn7QI3YgP-4" target="HoMJeiOZbGOWn7QI3YgP-5">
          <mxGeometry relative="1" as="geometry" />
        </mxCell>
        <mxCell id="HoMJeiOZbGOWn7QI3YgP-24" value="\(\omega(t)\)" style="edgeLabel;html=1;align=center;verticalAlign=middle;resizable=0;points=[];" vertex="1" connectable="0" parent="HoMJeiOZbGOWn7QI3YgP-10">
          <mxGeometry x="-0.16" y="1" relative="1" as="geometry">
            <mxPoint y="-9" as="offset" />
          </mxGeometry>
        </mxCell>
        <mxCell id="HoMJeiOZbGOWn7QI3YgP-4" value="anelli interni ideali" style="rounded=0;whiteSpace=wrap;html=1;fillColor=#d5e8d4;strokeColor=#82b366;" vertex="1" parent="1">
          <mxGeometry x="560" y="360" width="80" height="40" as="geometry" />
        </mxCell>
        <mxCell id="HoMJeiOZbGOWn7QI3YgP-5" value="\(\displaystyle\int\)" style="rounded=0;whiteSpace=wrap;html=1;fillColor=none;fontSize=12;" vertex="1" parent="1">
          <mxGeometry x="680" y="360" width="40" height="40" as="geometry" />
        </mxCell>
        <mxCell id="HoMJeiOZbGOWn7QI3YgP-12" style="edgeStyle=orthogonalEdgeStyle;rounded=0;orthogonalLoop=1;jettySize=auto;html=1;entryX=0;entryY=0.5;entryDx=0;entryDy=0;" edge="1" parent="1">
          <mxGeometry relative="1" as="geometry">
            <mxPoint x="280" y="379.8" as="sourcePoint" />
            <mxPoint x="330" y="379.8" as="targetPoint" />
          </mxGeometry>
        </mxCell>
        <mxCell id="HoMJeiOZbGOWn7QI3YgP-14" value="\(\theta_{rif}(t)\)" style="edgeLabel;html=1;align=center;verticalAlign=middle;resizable=0;points=[];" vertex="1" connectable="0" parent="HoMJeiOZbGOWn7QI3YgP-12">
          <mxGeometry x="-0.2876" y="2" relative="1" as="geometry">
            <mxPoint y="-8" as="offset" />
          </mxGeometry>
        </mxCell>
        <mxCell id="HoMJeiOZbGOWn7QI3YgP-13" style="edgeStyle=orthogonalEdgeStyle;rounded=0;orthogonalLoop=1;jettySize=auto;html=1;entryX=0;entryY=0.5;entryDx=0;entryDy=0;" edge="1" parent="1">
          <mxGeometry relative="1" as="geometry">
            <mxPoint x="720" y="379.86" as="sourcePoint" />
            <mxPoint x="770" y="379.86" as="targetPoint" />
          </mxGeometry>
        </mxCell>
        <mxCell id="HoMJeiOZbGOWn7QI3YgP-18" value="\(\omega_{ff}(t)\)" style="edgeLabel;html=1;align=center;verticalAlign=middle;resizable=0;points=[];" vertex="1" connectable="0" parent="1">
          <mxGeometry x="490.0019047619046" y="380" as="geometry">
            <mxPoint x="37" y="-40" as="offset" />
          </mxGeometry>
        </mxCell>
        <mxCell id="HoMJeiOZbGOWn7QI3YgP-19" value="azione di feed forward" style="text;html=1;align=center;verticalAlign=middle;whiteSpace=wrap;rounded=0;fontColor=#3224FF;" vertex="1" parent="1">
          <mxGeometry x="460" y="310" width="130" height="30" as="geometry" />
        </mxCell>
        <mxCell id="HoMJeiOZbGOWn7QI3YgP-21" value="\(+\)" style="text;html=1;align=center;verticalAlign=middle;whiteSpace=wrap;rounded=0;" vertex="1" parent="1">
          <mxGeometry x="500" y="350" width="20" height="20" as="geometry" />
        </mxCell>
        <mxCell id="HoMJeiOZbGOWn7QI3YgP-22" value="\(+\)" style="text;html=1;align=center;verticalAlign=middle;whiteSpace=wrap;rounded=0;" vertex="1" parent="1">
          <mxGeometry x="470" y="380" width="20" height="20" as="geometry" />
        </mxCell>
        <mxCell id="HoMJeiOZbGOWn7QI3YgP-25" value="\(\theta(t)\)" style="edgeLabel;html=1;align=center;verticalAlign=middle;resizable=0;points=[];" vertex="1" connectable="0" parent="1">
          <mxGeometry x="740" y="370" as="geometry">
            <mxPoint y="-2" as="offset" />
          </mxGeometry>
        </mxCell>
        <mxCell id="HoMJeiOZbGOWn7QI3YgP-26" value="\(+\)" style="text;html=1;align=center;verticalAlign=middle;whiteSpace=wrap;rounded=0;" vertex="1" parent="1">
          <mxGeometry x="320" y="350" width="20" height="20" as="geometry" />
        </mxCell>
        <mxCell id="HoMJeiOZbGOWn7QI3YgP-27" value="" style="endArrow=classic;html=1;rounded=0;entryX=0.5;entryY=1;entryDx=0;entryDy=0;" edge="1" parent="1" target="HoMJeiOZbGOWn7QI3YgP-1">
          <mxGeometry width="50" height="50" relative="1" as="geometry">
            <mxPoint x="740" y="380" as="sourcePoint" />
            <mxPoint x="520" y="320" as="targetPoint" />
            <Array as="points">
              <mxPoint x="740" y="430" />
              <mxPoint x="340" y="430" />
            </Array>
          </mxGeometry>
        </mxCell>
        <mxCell id="HoMJeiOZbGOWn7QI3YgP-28" value="\(-\)" style="text;html=1;align=center;verticalAlign=middle;whiteSpace=wrap;rounded=0;" vertex="1" parent="1">
          <mxGeometry x="350" y="390" width="20" height="20" as="geometry" />
        </mxCell>
        <mxCell id="HoMJeiOZbGOWn7QI3YgP-29" style="edgeStyle=orthogonalEdgeStyle;rounded=0;orthogonalLoop=1;jettySize=auto;html=1;entryX=0;entryY=1;entryDx=0;entryDy=0;fillColor=#b1ddf0;strokeColor=#10739e;" edge="1" parent="1" target="HoMJeiOZbGOWn7QI3YgP-21">
          <mxGeometry relative="1" as="geometry">
            <mxPoint x="500" y="340" as="sourcePoint" />
            <mxPoint x="510" y="349.81" as="targetPoint" />
          </mxGeometry>
        </mxCell>
      </root>
    </mxGraphModel>
  </diagram>
</mxfile>
